<mxfile host="app.diagrams.net" modified="2023-08-23T07:01:49.092Z" agent="Mozilla/5.0 (Windows NT 10.0; Win64; x64) AppleWebKit/537.36 (KHTML, like Gecko) Chrome/115.0.0.0 Safari/537.36" etag="PMVU4YoGTmcMgngbOaLU" version="21.6.8" type="device">
  <diagram id="R2lEEEUBdFMjLlhIrx00" name="Page-1">
    <mxGraphModel dx="2284" dy="790" grid="1" gridSize="10" guides="1" tooltips="1" connect="1" arrows="1" fold="1" page="1" pageScale="1" pageWidth="850" pageHeight="1100" background="#ffffff" math="0" shadow="0" extFonts="Permanent Marker^https://fonts.googleapis.com/css?family=Permanent+Marker">
      <root>
        <mxCell id="0" />
        <mxCell id="1" parent="0" />
        <mxCell id="0g2nk41mGP0cA1QGWgye-20" value="" style="edgeStyle=orthogonalEdgeStyle;rounded=0;orthogonalLoop=1;jettySize=auto;html=1;" edge="1" parent="1" source="0g2nk41mGP0cA1QGWgye-1" target="0g2nk41mGP0cA1QGWgye-9">
          <mxGeometry relative="1" as="geometry" />
        </mxCell>
        <mxCell id="0g2nk41mGP0cA1QGWgye-36" value="" style="edgeStyle=orthogonalEdgeStyle;rounded=0;orthogonalLoop=1;jettySize=auto;html=1;" edge="1" parent="1" source="0g2nk41mGP0cA1QGWgye-1" target="0g2nk41mGP0cA1QGWgye-14">
          <mxGeometry relative="1" as="geometry" />
        </mxCell>
        <mxCell id="0g2nk41mGP0cA1QGWgye-1" value="Movie" style="rounded=0;whiteSpace=wrap;html=1;fillColor=#dae8fc;strokeColor=#6c8ebf;" vertex="1" parent="1">
          <mxGeometry x="80" y="390" width="120" height="60" as="geometry" />
        </mxCell>
        <mxCell id="0g2nk41mGP0cA1QGWgye-2" value="Director" style="rounded=0;whiteSpace=wrap;html=1;fillColor=#dae8fc;strokeColor=#6c8ebf;" vertex="1" parent="1">
          <mxGeometry x="440" y="390" width="120" height="60" as="geometry" />
        </mxCell>
        <mxCell id="0g2nk41mGP0cA1QGWgye-3" value="Actor" style="rounded=0;whiteSpace=wrap;html=1;fillColor=#dae8fc;strokeColor=#6c8ebf;" vertex="1" parent="1">
          <mxGeometry x="440" y="510" width="120" height="60" as="geometry" />
        </mxCell>
        <mxCell id="0g2nk41mGP0cA1QGWgye-25" value="" style="edgeStyle=orthogonalEdgeStyle;rounded=0;orthogonalLoop=1;jettySize=auto;html=1;" edge="1" parent="1" source="0g2nk41mGP0cA1QGWgye-4" target="0g2nk41mGP0cA1QGWgye-12">
          <mxGeometry relative="1" as="geometry" />
        </mxCell>
        <mxCell id="0g2nk41mGP0cA1QGWgye-4" value="Cinema" style="rounded=0;whiteSpace=wrap;html=1;fillColor=#dae8fc;strokeColor=#6c8ebf;" vertex="1" parent="1">
          <mxGeometry x="80" y="630" width="120" height="60" as="geometry" />
        </mxCell>
        <mxCell id="0g2nk41mGP0cA1QGWgye-5" value="Theatre" style="rounded=0;whiteSpace=wrap;html=1;fillColor=#dae8fc;strokeColor=#6c8ebf;" vertex="1" parent="1">
          <mxGeometry x="-200" y="630" width="120" height="60" as="geometry" />
        </mxCell>
        <mxCell id="0g2nk41mGP0cA1QGWgye-27" value="" style="edgeStyle=orthogonalEdgeStyle;rounded=0;orthogonalLoop=1;jettySize=auto;html=1;" edge="1" parent="1" source="0g2nk41mGP0cA1QGWgye-6" target="0g2nk41mGP0cA1QGWgye-13">
          <mxGeometry relative="1" as="geometry" />
        </mxCell>
        <mxCell id="0g2nk41mGP0cA1QGWgye-30" value="" style="edgeStyle=orthogonalEdgeStyle;rounded=0;orthogonalLoop=1;jettySize=auto;html=1;" edge="1" parent="1" source="0g2nk41mGP0cA1QGWgye-6" target="0g2nk41mGP0cA1QGWgye-15">
          <mxGeometry relative="1" as="geometry" />
        </mxCell>
        <mxCell id="0g2nk41mGP0cA1QGWgye-6" value="Showing" style="rounded=0;whiteSpace=wrap;html=1;fillColor=#dae8fc;strokeColor=#6c8ebf;" vertex="1" parent="1">
          <mxGeometry x="-200" y="390" width="120" height="60" as="geometry" />
        </mxCell>
        <mxCell id="0g2nk41mGP0cA1QGWgye-7" value="Ticket" style="rounded=0;whiteSpace=wrap;html=1;fillColor=#dae8fc;strokeColor=#6c8ebf;" vertex="1" parent="1">
          <mxGeometry x="-480" y="390" width="120" height="60" as="geometry" />
        </mxCell>
        <mxCell id="0g2nk41mGP0cA1QGWgye-32" value="" style="edgeStyle=orthogonalEdgeStyle;rounded=0;orthogonalLoop=1;jettySize=auto;html=1;" edge="1" parent="1" source="0g2nk41mGP0cA1QGWgye-8" target="0g2nk41mGP0cA1QGWgye-16">
          <mxGeometry relative="1" as="geometry" />
        </mxCell>
        <mxCell id="0g2nk41mGP0cA1QGWgye-8" value="Participant" style="rounded=0;whiteSpace=wrap;html=1;fillColor=#dae8fc;strokeColor=#6c8ebf;" vertex="1" parent="1">
          <mxGeometry x="-480" y="630" width="120" height="60" as="geometry" />
        </mxCell>
        <mxCell id="0g2nk41mGP0cA1QGWgye-21" value="" style="edgeStyle=orthogonalEdgeStyle;rounded=0;orthogonalLoop=1;jettySize=auto;html=1;" edge="1" parent="1" source="0g2nk41mGP0cA1QGWgye-9" target="0g2nk41mGP0cA1QGWgye-2">
          <mxGeometry relative="1" as="geometry" />
        </mxCell>
        <mxCell id="0g2nk41mGP0cA1QGWgye-9" value="has a" style="rhombus;whiteSpace=wrap;html=1;fillColor=#f8cecc;strokeColor=#b85450;" vertex="1" parent="1">
          <mxGeometry x="280" y="380" width="80" height="80" as="geometry" />
        </mxCell>
        <mxCell id="0g2nk41mGP0cA1QGWgye-66" value="" style="edgeStyle=orthogonalEdgeStyle;rounded=0;orthogonalLoop=1;jettySize=auto;html=1;" edge="1" parent="1" source="0g2nk41mGP0cA1QGWgye-10" target="0g2nk41mGP0cA1QGWgye-3">
          <mxGeometry relative="1" as="geometry" />
        </mxCell>
        <mxCell id="0g2nk41mGP0cA1QGWgye-10" value="has" style="rhombus;whiteSpace=wrap;html=1;fillColor=#f8cecc;strokeColor=#b85450;" vertex="1" parent="1">
          <mxGeometry x="280" y="500" width="80" height="80" as="geometry" />
        </mxCell>
        <mxCell id="0g2nk41mGP0cA1QGWgye-26" value="" style="edgeStyle=orthogonalEdgeStyle;rounded=0;orthogonalLoop=1;jettySize=auto;html=1;" edge="1" parent="1" source="0g2nk41mGP0cA1QGWgye-12" target="0g2nk41mGP0cA1QGWgye-5">
          <mxGeometry relative="1" as="geometry" />
        </mxCell>
        <mxCell id="0g2nk41mGP0cA1QGWgye-12" value="has" style="rhombus;whiteSpace=wrap;html=1;fillColor=#f8cecc;strokeColor=#b85450;" vertex="1" parent="1">
          <mxGeometry x="-40" y="620" width="80" height="80" as="geometry" />
        </mxCell>
        <mxCell id="0g2nk41mGP0cA1QGWgye-29" value="" style="edgeStyle=orthogonalEdgeStyle;rounded=0;orthogonalLoop=1;jettySize=auto;html=1;" edge="1" parent="1" source="0g2nk41mGP0cA1QGWgye-13" target="0g2nk41mGP0cA1QGWgye-5">
          <mxGeometry relative="1" as="geometry" />
        </mxCell>
        <mxCell id="0g2nk41mGP0cA1QGWgye-13" value="occurs in" style="rhombus;whiteSpace=wrap;html=1;" vertex="1" parent="1">
          <mxGeometry x="-180" y="500" width="80" height="80" as="geometry" />
        </mxCell>
        <mxCell id="0g2nk41mGP0cA1QGWgye-37" value="" style="edgeStyle=orthogonalEdgeStyle;rounded=0;orthogonalLoop=1;jettySize=auto;html=1;" edge="1" parent="1" source="0g2nk41mGP0cA1QGWgye-14" target="0g2nk41mGP0cA1QGWgye-6">
          <mxGeometry relative="1" as="geometry" />
        </mxCell>
        <mxCell id="0g2nk41mGP0cA1QGWgye-14" value="plays at" style="rhombus;whiteSpace=wrap;html=1;fillColor=#f8cecc;strokeColor=#b85450;" vertex="1" parent="1">
          <mxGeometry x="-40" y="380" width="80" height="80" as="geometry" />
        </mxCell>
        <mxCell id="0g2nk41mGP0cA1QGWgye-31" value="" style="edgeStyle=orthogonalEdgeStyle;rounded=0;orthogonalLoop=1;jettySize=auto;html=1;" edge="1" parent="1" source="0g2nk41mGP0cA1QGWgye-15" target="0g2nk41mGP0cA1QGWgye-7">
          <mxGeometry relative="1" as="geometry" />
        </mxCell>
        <mxCell id="0g2nk41mGP0cA1QGWgye-15" value="requires" style="rhombus;whiteSpace=wrap;html=1;fillColor=#f8cecc;strokeColor=#b85450;" vertex="1" parent="1">
          <mxGeometry x="-320" y="380" width="80" height="80" as="geometry" />
        </mxCell>
        <mxCell id="0g2nk41mGP0cA1QGWgye-33" value="" style="edgeStyle=orthogonalEdgeStyle;rounded=0;orthogonalLoop=1;jettySize=auto;html=1;" edge="1" parent="1" source="0g2nk41mGP0cA1QGWgye-16" target="0g2nk41mGP0cA1QGWgye-7">
          <mxGeometry relative="1" as="geometry" />
        </mxCell>
        <mxCell id="0g2nk41mGP0cA1QGWgye-16" value="buys" style="rhombus;whiteSpace=wrap;html=1;fillColor=#f8cecc;strokeColor=#b85450;" vertex="1" parent="1">
          <mxGeometry x="-460" y="500" width="80" height="80" as="geometry" />
        </mxCell>
        <mxCell id="0g2nk41mGP0cA1QGWgye-22" value="" style="endArrow=classic;html=1;rounded=0;exitX=1;exitY=1;exitDx=0;exitDy=0;entryX=0;entryY=0;entryDx=0;entryDy=0;" edge="1" parent="1" source="0g2nk41mGP0cA1QGWgye-1" target="0g2nk41mGP0cA1QGWgye-10">
          <mxGeometry width="50" height="50" relative="1" as="geometry">
            <mxPoint x="210" y="560" as="sourcePoint" />
            <mxPoint x="260" y="510" as="targetPoint" />
          </mxGeometry>
        </mxCell>
        <mxCell id="0g2nk41mGP0cA1QGWgye-38" value="Title" style="ellipse;whiteSpace=wrap;html=1;fillColor=#d5e8d4;strokeColor=#82b366;" vertex="1" parent="1">
          <mxGeometry x="20" y="330" width="80" height="40" as="geometry" />
        </mxCell>
        <mxCell id="0g2nk41mGP0cA1QGWgye-39" value="Release year" style="ellipse;whiteSpace=wrap;html=1;fillColor=#d5e8d4;strokeColor=#82b366;" vertex="1" parent="1">
          <mxGeometry x="20" y="280" width="80" height="40" as="geometry" />
        </mxCell>
        <mxCell id="0g2nk41mGP0cA1QGWgye-40" value="Duration" style="ellipse;whiteSpace=wrap;html=1;fillColor=#d5e8d4;strokeColor=#82b366;" vertex="1" parent="1">
          <mxGeometry x="180" y="280" width="80" height="40" as="geometry" />
        </mxCell>
        <mxCell id="0g2nk41mGP0cA1QGWgye-41" value="Genre" style="ellipse;whiteSpace=wrap;html=1;fillColor=#d5e8d4;strokeColor=#82b366;" vertex="1" parent="1">
          <mxGeometry x="180" y="330" width="80" height="40" as="geometry" />
        </mxCell>
        <mxCell id="0g2nk41mGP0cA1QGWgye-46" value="" style="endArrow=none;html=1;rounded=0;entryX=0;entryY=1;entryDx=0;entryDy=0;exitX=0.5;exitY=0;exitDx=0;exitDy=0;" edge="1" parent="1" source="0g2nk41mGP0cA1QGWgye-1" target="0g2nk41mGP0cA1QGWgye-40">
          <mxGeometry width="50" height="50" relative="1" as="geometry">
            <mxPoint x="100" y="520" as="sourcePoint" />
            <mxPoint x="150" y="470" as="targetPoint" />
          </mxGeometry>
        </mxCell>
        <mxCell id="0g2nk41mGP0cA1QGWgye-47" value="" style="endArrow=none;html=1;rounded=0;exitX=1;exitY=1;exitDx=0;exitDy=0;entryX=0.5;entryY=0;entryDx=0;entryDy=0;" edge="1" parent="1" source="0g2nk41mGP0cA1QGWgye-39" target="0g2nk41mGP0cA1QGWgye-1">
          <mxGeometry width="50" height="50" relative="1" as="geometry">
            <mxPoint x="100" y="520" as="sourcePoint" />
            <mxPoint x="150" y="470" as="targetPoint" />
          </mxGeometry>
        </mxCell>
        <mxCell id="0g2nk41mGP0cA1QGWgye-48" value="" style="endArrow=none;html=1;rounded=0;entryX=0;entryY=1;entryDx=0;entryDy=0;exitX=0.75;exitY=0;exitDx=0;exitDy=0;" edge="1" parent="1" source="0g2nk41mGP0cA1QGWgye-1" target="0g2nk41mGP0cA1QGWgye-41">
          <mxGeometry width="50" height="50" relative="1" as="geometry">
            <mxPoint x="100" y="520" as="sourcePoint" />
            <mxPoint x="150" y="470" as="targetPoint" />
          </mxGeometry>
        </mxCell>
        <mxCell id="0g2nk41mGP0cA1QGWgye-49" value="" style="endArrow=none;html=1;rounded=0;exitX=1;exitY=1;exitDx=0;exitDy=0;entryX=0.25;entryY=0;entryDx=0;entryDy=0;" edge="1" parent="1" source="0g2nk41mGP0cA1QGWgye-38" target="0g2nk41mGP0cA1QGWgye-1">
          <mxGeometry width="50" height="50" relative="1" as="geometry">
            <mxPoint x="100" y="520" as="sourcePoint" />
            <mxPoint x="150" y="470" as="targetPoint" />
          </mxGeometry>
        </mxCell>
        <mxCell id="0g2nk41mGP0cA1QGWgye-51" value="Actor_id" style="ellipse;whiteSpace=wrap;html=1;fillColor=#cdeb8b;strokeColor=#36393d;" vertex="1" parent="1">
          <mxGeometry x="50" y="230" width="80" height="40" as="geometry" />
        </mxCell>
        <mxCell id="0g2nk41mGP0cA1QGWgye-52" value="Director_id" style="ellipse;whiteSpace=wrap;html=1;fillColor=#cdeb8b;strokeColor=#36393d;" vertex="1" parent="1">
          <mxGeometry x="170" y="230" width="80" height="40" as="geometry" />
        </mxCell>
        <mxCell id="0g2nk41mGP0cA1QGWgye-53" value="" style="endArrow=none;html=1;rounded=0;entryX=1;entryY=1;entryDx=0;entryDy=0;exitX=0.5;exitY=0;exitDx=0;exitDy=0;" edge="1" parent="1" source="0g2nk41mGP0cA1QGWgye-1" target="0g2nk41mGP0cA1QGWgye-51">
          <mxGeometry width="50" height="50" relative="1" as="geometry">
            <mxPoint x="100" y="520" as="sourcePoint" />
            <mxPoint x="150" y="470" as="targetPoint" />
          </mxGeometry>
        </mxCell>
        <mxCell id="0g2nk41mGP0cA1QGWgye-54" value="" style="endArrow=none;html=1;rounded=0;entryX=0;entryY=1;entryDx=0;entryDy=0;exitX=0.5;exitY=0;exitDx=0;exitDy=0;" edge="1" parent="1" source="0g2nk41mGP0cA1QGWgye-1" target="0g2nk41mGP0cA1QGWgye-52">
          <mxGeometry width="50" height="50" relative="1" as="geometry">
            <mxPoint x="100" y="520" as="sourcePoint" />
            <mxPoint x="150" y="470" as="targetPoint" />
          </mxGeometry>
        </mxCell>
        <mxCell id="0g2nk41mGP0cA1QGWgye-55" value="&lt;u&gt;Actor_id&lt;/u&gt;" style="ellipse;whiteSpace=wrap;html=1;fillColor=#d5e8d4;strokeColor=#82b366;" vertex="1" parent="1">
          <mxGeometry x="600" y="500" width="80" height="40" as="geometry" />
        </mxCell>
        <mxCell id="0g2nk41mGP0cA1QGWgye-56" value="&lt;u&gt;Director_id&lt;/u&gt;" style="ellipse;whiteSpace=wrap;html=1;fillColor=#d5e8d4;strokeColor=#82b366;" vertex="1" parent="1">
          <mxGeometry x="590" y="370" width="80" height="40" as="geometry" />
        </mxCell>
        <mxCell id="0g2nk41mGP0cA1QGWgye-58" value="Name" style="ellipse;whiteSpace=wrap;html=1;fillColor=#d5e8d4;strokeColor=#82b366;" vertex="1" parent="1">
          <mxGeometry x="590" y="420" width="80" height="40" as="geometry" />
        </mxCell>
        <mxCell id="0g2nk41mGP0cA1QGWgye-59" value="Name" style="ellipse;whiteSpace=wrap;html=1;fillColor=#d5e8d4;strokeColor=#82b366;" vertex="1" parent="1">
          <mxGeometry x="600" y="550" width="80" height="40" as="geometry" />
        </mxCell>
        <mxCell id="0g2nk41mGP0cA1QGWgye-60" value="&lt;u&gt;Movie_id&lt;/u&gt;" style="ellipse;whiteSpace=wrap;html=1;fillColor=#d5e8d4;strokeColor=#82b366;" vertex="1" parent="1">
          <mxGeometry x="110" y="200" width="80" height="40" as="geometry" />
        </mxCell>
        <mxCell id="0g2nk41mGP0cA1QGWgye-61" value="" style="endArrow=none;html=1;rounded=0;entryX=0.5;entryY=1;entryDx=0;entryDy=0;exitX=0.5;exitY=0;exitDx=0;exitDy=0;" edge="1" parent="1" source="0g2nk41mGP0cA1QGWgye-1" target="0g2nk41mGP0cA1QGWgye-60">
          <mxGeometry width="50" height="50" relative="1" as="geometry">
            <mxPoint x="100" y="520" as="sourcePoint" />
            <mxPoint x="150" y="470" as="targetPoint" />
          </mxGeometry>
        </mxCell>
        <mxCell id="0g2nk41mGP0cA1QGWgye-62" value="" style="endArrow=none;html=1;rounded=0;entryX=0;entryY=0.5;entryDx=0;entryDy=0;exitX=1;exitY=0.25;exitDx=0;exitDy=0;" edge="1" parent="1" source="0g2nk41mGP0cA1QGWgye-2" target="0g2nk41mGP0cA1QGWgye-56">
          <mxGeometry width="50" height="50" relative="1" as="geometry">
            <mxPoint x="100" y="520" as="sourcePoint" />
            <mxPoint x="150" y="470" as="targetPoint" />
          </mxGeometry>
        </mxCell>
        <mxCell id="0g2nk41mGP0cA1QGWgye-63" value="" style="endArrow=none;html=1;rounded=0;entryX=0;entryY=0.5;entryDx=0;entryDy=0;exitX=1;exitY=0.75;exitDx=0;exitDy=0;" edge="1" parent="1" source="0g2nk41mGP0cA1QGWgye-2" target="0g2nk41mGP0cA1QGWgye-58">
          <mxGeometry width="50" height="50" relative="1" as="geometry">
            <mxPoint x="100" y="520" as="sourcePoint" />
            <mxPoint x="150" y="470" as="targetPoint" />
          </mxGeometry>
        </mxCell>
        <mxCell id="0g2nk41mGP0cA1QGWgye-64" value="" style="endArrow=none;html=1;rounded=0;entryX=0;entryY=0.5;entryDx=0;entryDy=0;exitX=1;exitY=0.25;exitDx=0;exitDy=0;" edge="1" parent="1" source="0g2nk41mGP0cA1QGWgye-3" target="0g2nk41mGP0cA1QGWgye-55">
          <mxGeometry width="50" height="50" relative="1" as="geometry">
            <mxPoint x="100" y="520" as="sourcePoint" />
            <mxPoint x="150" y="470" as="targetPoint" />
          </mxGeometry>
        </mxCell>
        <mxCell id="0g2nk41mGP0cA1QGWgye-65" value="" style="endArrow=none;html=1;rounded=0;entryX=0;entryY=0.5;entryDx=0;entryDy=0;exitX=1;exitY=0.75;exitDx=0;exitDy=0;" edge="1" parent="1" source="0g2nk41mGP0cA1QGWgye-3" target="0g2nk41mGP0cA1QGWgye-59">
          <mxGeometry width="50" height="50" relative="1" as="geometry">
            <mxPoint x="100" y="520" as="sourcePoint" />
            <mxPoint x="590" y="570" as="targetPoint" />
          </mxGeometry>
        </mxCell>
        <mxCell id="0g2nk41mGP0cA1QGWgye-67" value="&lt;u&gt;Cinema_id&lt;/u&gt;" style="ellipse;whiteSpace=wrap;html=1;fillColor=#d5e8d4;strokeColor=#82b366;" vertex="1" parent="1">
          <mxGeometry x="210" y="590" width="80" height="40" as="geometry" />
        </mxCell>
        <mxCell id="0g2nk41mGP0cA1QGWgye-68" value="Theatre_Amount" style="ellipse;whiteSpace=wrap;html=1;fillColor=#d5e8d4;strokeColor=#82b366;" vertex="1" parent="1">
          <mxGeometry x="110" y="710" width="100" height="40" as="geometry" />
        </mxCell>
        <mxCell id="0g2nk41mGP0cA1QGWgye-69" value="Address" style="ellipse;whiteSpace=wrap;html=1;fillColor=#d5e8d4;strokeColor=#82b366;" vertex="1" parent="1">
          <mxGeometry x="210" y="640" width="80" height="40" as="geometry" />
        </mxCell>
        <mxCell id="0g2nk41mGP0cA1QGWgye-70" value="&lt;u&gt;Theatre_id&lt;/u&gt;" style="ellipse;whiteSpace=wrap;html=1;fillColor=#d5e8d4;strokeColor=#82b366;" vertex="1" parent="1">
          <mxGeometry x="-130" y="710" width="80" height="40" as="geometry" />
        </mxCell>
        <mxCell id="0g2nk41mGP0cA1QGWgye-71" value="&lt;u&gt;Showing_id&lt;/u&gt;" style="ellipse;whiteSpace=wrap;html=1;fillColor=#d5e8d4;strokeColor=#82b366;" vertex="1" parent="1">
          <mxGeometry x="-110" y="330" width="80" height="40" as="geometry" />
        </mxCell>
        <mxCell id="0g2nk41mGP0cA1QGWgye-72" value="Showing_id" style="ellipse;whiteSpace=wrap;html=1;fillColor=#cdeb8b;strokeColor=#36393d;" vertex="1" parent="1">
          <mxGeometry x="-380" y="290" width="80" height="40" as="geometry" />
        </mxCell>
        <mxCell id="0g2nk41mGP0cA1QGWgye-73" value="Seat_Amount" style="ellipse;whiteSpace=wrap;html=1;fillColor=#d5e8d4;strokeColor=#82b366;" vertex="1" parent="1">
          <mxGeometry x="-220" y="710" width="80" height="40" as="geometry" />
        </mxCell>
        <mxCell id="0g2nk41mGP0cA1QGWgye-74" value="Ticket_Amount" style="ellipse;whiteSpace=wrap;html=1;fillColor=#d5e8d4;strokeColor=#82b366;" vertex="1" parent="1">
          <mxGeometry x="-270" y="330" width="90" height="40" as="geometry" />
        </mxCell>
        <mxCell id="0g2nk41mGP0cA1QGWgye-75" value="Ticket_id" style="ellipse;whiteSpace=wrap;html=1;fillColor=#cdeb8b;strokeColor=#36393d;" vertex="1" parent="1">
          <mxGeometry x="-220" y="280" width="80" height="40" as="geometry" />
        </mxCell>
        <mxCell id="0g2nk41mGP0cA1QGWgye-76" value="Movie_id" style="ellipse;whiteSpace=wrap;html=1;fillColor=#cdeb8b;strokeColor=#36393d;" vertex="1" parent="1">
          <mxGeometry x="-580" y="290" width="80" height="40" as="geometry" />
        </mxCell>
        <mxCell id="0g2nk41mGP0cA1QGWgye-77" value="&lt;u&gt;Ticket_id&lt;/u&gt;" style="ellipse;whiteSpace=wrap;html=1;fillColor=#d5e8d4;strokeColor=#82b366;" vertex="1" parent="1">
          <mxGeometry x="-610" y="340" width="80" height="40" as="geometry" />
        </mxCell>
        <mxCell id="0g2nk41mGP0cA1QGWgye-78" value="Name" style="ellipse;whiteSpace=wrap;html=1;fillColor=#d5e8d4;strokeColor=#82b366;" vertex="1" parent="1">
          <mxGeometry x="210" y="690" width="80" height="40" as="geometry" />
        </mxCell>
        <mxCell id="0g2nk41mGP0cA1QGWgye-79" value="Director_birthyear" style="ellipse;whiteSpace=wrap;html=1;fillColor=#d5e8d4;strokeColor=#82b366;" vertex="1" parent="1">
          <mxGeometry x="520" y="330" width="100" height="40" as="geometry" />
        </mxCell>
        <mxCell id="0g2nk41mGP0cA1QGWgye-82" value="m" style="text;html=1;strokeColor=none;fillColor=none;align=center;verticalAlign=middle;whiteSpace=wrap;rounded=0;" vertex="1" parent="1">
          <mxGeometry x="270" y="125" width="60" height="30" as="geometry" />
        </mxCell>
        <mxCell id="0g2nk41mGP0cA1QGWgye-83" value="m" style="text;html=1;strokeColor=none;fillColor=none;align=center;verticalAlign=middle;whiteSpace=wrap;rounded=0;" vertex="1" parent="1">
          <mxGeometry x="190" y="390" width="60" height="30" as="geometry" />
        </mxCell>
        <mxCell id="0g2nk41mGP0cA1QGWgye-84" value="m" style="text;html=1;strokeColor=none;fillColor=none;align=center;verticalAlign=middle;whiteSpace=wrap;rounded=0;" vertex="1" parent="1">
          <mxGeometry x="380" y="390" width="60" height="30" as="geometry" />
        </mxCell>
        <mxCell id="0g2nk41mGP0cA1QGWgye-85" value="m" style="text;html=1;strokeColor=none;fillColor=none;align=center;verticalAlign=middle;whiteSpace=wrap;rounded=0;" vertex="1" parent="1">
          <mxGeometry x="190" y="430" width="60" height="30" as="geometry" />
        </mxCell>
        <mxCell id="0g2nk41mGP0cA1QGWgye-86" value="m" style="text;html=1;strokeColor=none;fillColor=none;align=center;verticalAlign=middle;whiteSpace=wrap;rounded=0;" vertex="1" parent="1">
          <mxGeometry x="380" y="510" width="60" height="30" as="geometry" />
        </mxCell>
        <mxCell id="0g2nk41mGP0cA1QGWgye-87" value="m" style="text;html=1;strokeColor=none;fillColor=none;align=center;verticalAlign=middle;whiteSpace=wrap;rounded=0;" vertex="1" parent="1">
          <mxGeometry x="30" y="630" width="60" height="30" as="geometry" />
        </mxCell>
        <mxCell id="0g2nk41mGP0cA1QGWgye-88" value="1" style="text;html=1;strokeColor=none;fillColor=none;align=center;verticalAlign=middle;whiteSpace=wrap;rounded=0;" vertex="1" parent="1">
          <mxGeometry x="-90" y="630" width="60" height="30" as="geometry" />
        </mxCell>
        <mxCell id="0g2nk41mGP0cA1QGWgye-89" value="m" style="text;html=1;strokeColor=none;fillColor=none;align=center;verticalAlign=middle;whiteSpace=wrap;rounded=0;" vertex="1" parent="1">
          <mxGeometry x="30" y="390" width="60" height="30" as="geometry" />
        </mxCell>
        <mxCell id="0g2nk41mGP0cA1QGWgye-90" value="1" style="text;html=1;strokeColor=none;fillColor=none;align=center;verticalAlign=middle;whiteSpace=wrap;rounded=0;" vertex="1" parent="1">
          <mxGeometry x="310" y="125" width="60" height="30" as="geometry" />
        </mxCell>
        <mxCell id="0g2nk41mGP0cA1QGWgye-91" value="m" style="text;html=1;strokeColor=none;fillColor=none;align=center;verticalAlign=middle;whiteSpace=wrap;rounded=0;" vertex="1" parent="1">
          <mxGeometry x="-160" y="450" width="60" height="30" as="geometry" />
        </mxCell>
        <mxCell id="0g2nk41mGP0cA1QGWgye-92" value="1" style="text;html=1;strokeColor=none;fillColor=none;align=center;verticalAlign=middle;whiteSpace=wrap;rounded=0;" vertex="1" parent="1">
          <mxGeometry x="-100" y="390" width="60" height="30" as="geometry" />
        </mxCell>
        <mxCell id="0g2nk41mGP0cA1QGWgye-94" value="m" style="text;html=1;strokeColor=none;fillColor=none;align=center;verticalAlign=middle;whiteSpace=wrap;rounded=0;" vertex="1" parent="1">
          <mxGeometry x="-160" y="600" width="60" height="30" as="geometry" />
        </mxCell>
        <mxCell id="0g2nk41mGP0cA1QGWgye-95" value="m" style="text;html=1;strokeColor=none;fillColor=none;align=center;verticalAlign=middle;whiteSpace=wrap;rounded=0;" vertex="1" parent="1">
          <mxGeometry x="-440" y="600" width="60" height="30" as="geometry" />
        </mxCell>
        <mxCell id="0g2nk41mGP0cA1QGWgye-96" value="1" style="text;html=1;strokeColor=none;fillColor=none;align=center;verticalAlign=middle;whiteSpace=wrap;rounded=0;" vertex="1" parent="1">
          <mxGeometry x="-440" y="450" width="60" height="30" as="geometry" />
        </mxCell>
        <mxCell id="0g2nk41mGP0cA1QGWgye-98" value="m" style="text;html=1;strokeColor=none;fillColor=none;align=center;verticalAlign=middle;whiteSpace=wrap;rounded=0;" vertex="1" parent="1">
          <mxGeometry x="-370" y="390" width="60" height="30" as="geometry" />
        </mxCell>
        <mxCell id="0g2nk41mGP0cA1QGWgye-99" value="1" style="text;html=1;strokeColor=none;fillColor=none;align=center;verticalAlign=middle;whiteSpace=wrap;rounded=0;" vertex="1" parent="1">
          <mxGeometry x="-250" y="390" width="60" height="30" as="geometry" />
        </mxCell>
        <mxCell id="0g2nk41mGP0cA1QGWgye-102" value="Actor_birthyear" style="ellipse;whiteSpace=wrap;html=1;fillColor=#d5e8d4;strokeColor=#82b366;" vertex="1" parent="1">
          <mxGeometry x="520" y="590" width="100" height="40" as="geometry" />
        </mxCell>
        <mxCell id="0g2nk41mGP0cA1QGWgye-105" value="" style="endArrow=none;html=1;rounded=0;entryX=0.5;entryY=1;entryDx=0;entryDy=0;exitX=1;exitY=0;exitDx=0;exitDy=0;" edge="1" parent="1" source="0g2nk41mGP0cA1QGWgye-2" target="0g2nk41mGP0cA1QGWgye-79">
          <mxGeometry width="50" height="50" relative="1" as="geometry">
            <mxPoint x="100" y="520" as="sourcePoint" />
            <mxPoint x="150" y="470" as="targetPoint" />
          </mxGeometry>
        </mxCell>
        <mxCell id="0g2nk41mGP0cA1QGWgye-106" value="" style="endArrow=none;html=1;rounded=0;entryX=0.5;entryY=0;entryDx=0;entryDy=0;exitX=1;exitY=1;exitDx=0;exitDy=0;" edge="1" parent="1" source="0g2nk41mGP0cA1QGWgye-3" target="0g2nk41mGP0cA1QGWgye-102">
          <mxGeometry width="50" height="50" relative="1" as="geometry">
            <mxPoint x="100" y="520" as="sourcePoint" />
            <mxPoint x="150" y="470" as="targetPoint" />
          </mxGeometry>
        </mxCell>
        <mxCell id="0g2nk41mGP0cA1QGWgye-107" value="" style="endArrow=none;html=1;rounded=0;exitX=1;exitY=0;exitDx=0;exitDy=0;entryX=1;entryY=1;entryDx=0;entryDy=0;" edge="1" parent="1" source="0g2nk41mGP0cA1QGWgye-68" target="0g2nk41mGP0cA1QGWgye-4">
          <mxGeometry width="50" height="50" relative="1" as="geometry">
            <mxPoint x="100" y="520" as="sourcePoint" />
            <mxPoint x="150" y="470" as="targetPoint" />
          </mxGeometry>
        </mxCell>
        <mxCell id="0g2nk41mGP0cA1QGWgye-108" value="" style="endArrow=none;html=1;rounded=0;entryX=0;entryY=0;entryDx=0;entryDy=0;exitX=1;exitY=1;exitDx=0;exitDy=0;" edge="1" parent="1" source="0g2nk41mGP0cA1QGWgye-4" target="0g2nk41mGP0cA1QGWgye-78">
          <mxGeometry width="50" height="50" relative="1" as="geometry">
            <mxPoint x="100" y="520" as="sourcePoint" />
            <mxPoint x="150" y="470" as="targetPoint" />
          </mxGeometry>
        </mxCell>
        <mxCell id="0g2nk41mGP0cA1QGWgye-109" value="" style="endArrow=none;html=1;rounded=0;entryX=0;entryY=0.5;entryDx=0;entryDy=0;exitX=1;exitY=0.5;exitDx=0;exitDy=0;" edge="1" parent="1" source="0g2nk41mGP0cA1QGWgye-4" target="0g2nk41mGP0cA1QGWgye-69">
          <mxGeometry width="50" height="50" relative="1" as="geometry">
            <mxPoint x="100" y="520" as="sourcePoint" />
            <mxPoint x="150" y="470" as="targetPoint" />
          </mxGeometry>
        </mxCell>
        <mxCell id="0g2nk41mGP0cA1QGWgye-110" value="" style="endArrow=none;html=1;rounded=0;entryX=0;entryY=0.5;entryDx=0;entryDy=0;exitX=1;exitY=0;exitDx=0;exitDy=0;" edge="1" parent="1" source="0g2nk41mGP0cA1QGWgye-4" target="0g2nk41mGP0cA1QGWgye-67">
          <mxGeometry width="50" height="50" relative="1" as="geometry">
            <mxPoint x="100" y="520" as="sourcePoint" />
            <mxPoint x="150" y="470" as="targetPoint" />
          </mxGeometry>
        </mxCell>
        <mxCell id="0g2nk41mGP0cA1QGWgye-111" value="" style="endArrow=none;html=1;rounded=0;exitX=0.75;exitY=1;exitDx=0;exitDy=0;entryX=0.5;entryY=0;entryDx=0;entryDy=0;" edge="1" parent="1" source="0g2nk41mGP0cA1QGWgye-5" target="0g2nk41mGP0cA1QGWgye-70">
          <mxGeometry width="50" height="50" relative="1" as="geometry">
            <mxPoint x="100" y="520" as="sourcePoint" />
            <mxPoint x="150" y="470" as="targetPoint" />
          </mxGeometry>
        </mxCell>
        <mxCell id="0g2nk41mGP0cA1QGWgye-112" value="" style="endArrow=none;html=1;rounded=0;exitX=0.5;exitY=0;exitDx=0;exitDy=0;entryX=0.25;entryY=1;entryDx=0;entryDy=0;" edge="1" parent="1" source="0g2nk41mGP0cA1QGWgye-73" target="0g2nk41mGP0cA1QGWgye-5">
          <mxGeometry width="50" height="50" relative="1" as="geometry">
            <mxPoint x="100" y="520" as="sourcePoint" />
            <mxPoint x="150" y="470" as="targetPoint" />
          </mxGeometry>
        </mxCell>
        <mxCell id="0g2nk41mGP0cA1QGWgye-114" value="" style="endArrow=none;html=1;rounded=0;exitX=0.75;exitY=0;exitDx=0;exitDy=0;entryX=0.5;entryY=1;entryDx=0;entryDy=0;" edge="1" parent="1" source="0g2nk41mGP0cA1QGWgye-6" target="0g2nk41mGP0cA1QGWgye-71">
          <mxGeometry width="50" height="50" relative="1" as="geometry">
            <mxPoint x="100" y="520" as="sourcePoint" />
            <mxPoint x="150" y="470" as="targetPoint" />
          </mxGeometry>
        </mxCell>
        <mxCell id="0g2nk41mGP0cA1QGWgye-115" value="" style="endArrow=none;html=1;rounded=0;exitX=0.5;exitY=1;exitDx=0;exitDy=0;entryX=0.25;entryY=0;entryDx=0;entryDy=0;" edge="1" parent="1" source="0g2nk41mGP0cA1QGWgye-74" target="0g2nk41mGP0cA1QGWgye-6">
          <mxGeometry width="50" height="50" relative="1" as="geometry">
            <mxPoint x="100" y="520" as="sourcePoint" />
            <mxPoint x="150" y="470" as="targetPoint" />
          </mxGeometry>
        </mxCell>
        <mxCell id="0g2nk41mGP0cA1QGWgye-116" value="Name" style="ellipse;whiteSpace=wrap;html=1;fillColor=#d5e8d4;strokeColor=#82b366;" vertex="1" parent="1">
          <mxGeometry x="-590" y="625" width="80" height="40" as="geometry" />
        </mxCell>
        <mxCell id="0g2nk41mGP0cA1QGWgye-117" value="Ticket_id" style="ellipse;whiteSpace=wrap;html=1;fillColor=#cdeb8b;strokeColor=#36393d;" vertex="1" parent="1">
          <mxGeometry x="-590" y="670" width="80" height="40" as="geometry" />
        </mxCell>
        <mxCell id="0g2nk41mGP0cA1QGWgye-119" value="Email" style="ellipse;whiteSpace=wrap;html=1;fillColor=#d5e8d4;strokeColor=#82b366;" vertex="1" parent="1">
          <mxGeometry x="-570" y="580" width="80" height="40" as="geometry" />
        </mxCell>
        <mxCell id="0g2nk41mGP0cA1QGWgye-123" value="Movie_id" style="ellipse;whiteSpace=wrap;html=1;fillColor=#cdeb8b;strokeColor=#36393d;" vertex="1" parent="1">
          <mxGeometry x="-130" y="280" width="80" height="40" as="geometry" />
        </mxCell>
        <mxCell id="0g2nk41mGP0cA1QGWgye-127" value="" style="endArrow=none;html=1;rounded=0;entryX=0;entryY=1;entryDx=0;entryDy=0;exitX=0.5;exitY=0;exitDx=0;exitDy=0;" edge="1" parent="1" source="0g2nk41mGP0cA1QGWgye-6" target="0g2nk41mGP0cA1QGWgye-123">
          <mxGeometry width="50" height="50" relative="1" as="geometry">
            <mxPoint x="40" y="460" as="sourcePoint" />
            <mxPoint x="90" y="410" as="targetPoint" />
          </mxGeometry>
        </mxCell>
        <mxCell id="0g2nk41mGP0cA1QGWgye-128" value="" style="endArrow=none;html=1;rounded=0;entryX=0.5;entryY=1;entryDx=0;entryDy=0;exitX=0.5;exitY=0;exitDx=0;exitDy=0;" edge="1" parent="1" source="0g2nk41mGP0cA1QGWgye-6" target="0g2nk41mGP0cA1QGWgye-75">
          <mxGeometry width="50" height="50" relative="1" as="geometry">
            <mxPoint x="-130" y="400" as="sourcePoint" />
            <mxPoint x="-108" y="324" as="targetPoint" />
          </mxGeometry>
        </mxCell>
        <mxCell id="0g2nk41mGP0cA1QGWgye-129" value="&lt;u&gt;Participant_id&lt;/u&gt;" style="ellipse;whiteSpace=wrap;html=1;fillColor=#d5e8d4;strokeColor=#82b366;" vertex="1" parent="1">
          <mxGeometry x="-590" y="720" width="80" height="40" as="geometry" />
        </mxCell>
        <mxCell id="0g2nk41mGP0cA1QGWgye-132" value="Cinema_id" style="ellipse;whiteSpace=wrap;html=1;fillColor=#cdeb8b;strokeColor=#36393d;" vertex="1" parent="1">
          <mxGeometry x="-530" y="250" width="80" height="40" as="geometry" />
        </mxCell>
        <mxCell id="0g2nk41mGP0cA1QGWgye-133" value="Theatre_id" style="ellipse;whiteSpace=wrap;html=1;fillColor=#cdeb8b;strokeColor=#36393d;" vertex="1" parent="1">
          <mxGeometry x="-440" y="250" width="80" height="40" as="geometry" />
        </mxCell>
        <mxCell id="0g2nk41mGP0cA1QGWgye-134" value="date" style="ellipse;whiteSpace=wrap;html=1;fillColor=#d5e8d4;strokeColor=#82b366;" vertex="1" parent="1">
          <mxGeometry x="370" y="125" width="80" height="40" as="geometry" />
        </mxCell>
        <mxCell id="0g2nk41mGP0cA1QGWgye-135" value="" style="endArrow=none;html=1;rounded=0;exitX=1;exitY=1;exitDx=0;exitDy=0;entryX=0;entryY=0;entryDx=0;entryDy=0;" edge="1" parent="1" source="0g2nk41mGP0cA1QGWgye-119" target="0g2nk41mGP0cA1QGWgye-8">
          <mxGeometry width="50" height="50" relative="1" as="geometry">
            <mxPoint x="30" y="480" as="sourcePoint" />
            <mxPoint x="80" y="430" as="targetPoint" />
          </mxGeometry>
        </mxCell>
        <mxCell id="0g2nk41mGP0cA1QGWgye-136" value="" style="endArrow=none;html=1;rounded=0;exitX=1;exitY=0;exitDx=0;exitDy=0;entryX=0;entryY=0.75;entryDx=0;entryDy=0;" edge="1" parent="1" source="0g2nk41mGP0cA1QGWgye-129" target="0g2nk41mGP0cA1QGWgye-8">
          <mxGeometry width="50" height="50" relative="1" as="geometry">
            <mxPoint x="30" y="480" as="sourcePoint" />
            <mxPoint x="80" y="430" as="targetPoint" />
          </mxGeometry>
        </mxCell>
        <mxCell id="0g2nk41mGP0cA1QGWgye-137" value="" style="endArrow=none;html=1;rounded=0;exitX=1;exitY=0;exitDx=0;exitDy=0;entryX=0;entryY=0.5;entryDx=0;entryDy=0;" edge="1" parent="1" source="0g2nk41mGP0cA1QGWgye-117" target="0g2nk41mGP0cA1QGWgye-8">
          <mxGeometry width="50" height="50" relative="1" as="geometry">
            <mxPoint x="30" y="480" as="sourcePoint" />
            <mxPoint x="80" y="430" as="targetPoint" />
          </mxGeometry>
        </mxCell>
        <mxCell id="0g2nk41mGP0cA1QGWgye-138" value="" style="endArrow=none;html=1;rounded=0;exitX=1;exitY=0.5;exitDx=0;exitDy=0;entryX=0;entryY=0.5;entryDx=0;entryDy=0;" edge="1" parent="1" source="0g2nk41mGP0cA1QGWgye-116" target="0g2nk41mGP0cA1QGWgye-8">
          <mxGeometry width="50" height="50" relative="1" as="geometry">
            <mxPoint x="30" y="480" as="sourcePoint" />
            <mxPoint x="80" y="430" as="targetPoint" />
          </mxGeometry>
        </mxCell>
        <mxCell id="0g2nk41mGP0cA1QGWgye-139" value="" style="endArrow=none;html=1;rounded=0;exitX=0;exitY=1;exitDx=0;exitDy=0;entryX=0.592;entryY=0.033;entryDx=0;entryDy=0;entryPerimeter=0;" edge="1" parent="1" source="0g2nk41mGP0cA1QGWgye-72" target="0g2nk41mGP0cA1QGWgye-7">
          <mxGeometry width="50" height="50" relative="1" as="geometry">
            <mxPoint x="30" y="480" as="sourcePoint" />
            <mxPoint x="80" y="430" as="targetPoint" />
          </mxGeometry>
        </mxCell>
        <mxCell id="0g2nk41mGP0cA1QGWgye-140" value="" style="endArrow=none;html=1;rounded=0;exitX=0.5;exitY=1;exitDx=0;exitDy=0;entryX=0.5;entryY=0;entryDx=0;entryDy=0;" edge="1" parent="1" source="0g2nk41mGP0cA1QGWgye-133" target="0g2nk41mGP0cA1QGWgye-7">
          <mxGeometry width="50" height="50" relative="1" as="geometry">
            <mxPoint x="30" y="480" as="sourcePoint" />
            <mxPoint x="80" y="430" as="targetPoint" />
          </mxGeometry>
        </mxCell>
        <mxCell id="0g2nk41mGP0cA1QGWgye-141" value="" style="endArrow=none;html=1;rounded=0;exitX=0.5;exitY=1;exitDx=0;exitDy=0;" edge="1" parent="1" source="0g2nk41mGP0cA1QGWgye-132" target="0g2nk41mGP0cA1QGWgye-7">
          <mxGeometry width="50" height="50" relative="1" as="geometry">
            <mxPoint x="30" y="480" as="sourcePoint" />
            <mxPoint x="80" y="430" as="targetPoint" />
          </mxGeometry>
        </mxCell>
        <mxCell id="0g2nk41mGP0cA1QGWgye-142" value="" style="endArrow=none;html=1;rounded=0;exitX=1;exitY=1;exitDx=0;exitDy=0;entryX=0.25;entryY=0;entryDx=0;entryDy=0;" edge="1" parent="1" source="0g2nk41mGP0cA1QGWgye-76" target="0g2nk41mGP0cA1QGWgye-7">
          <mxGeometry width="50" height="50" relative="1" as="geometry">
            <mxPoint x="30" y="480" as="sourcePoint" />
            <mxPoint x="80" y="430" as="targetPoint" />
          </mxGeometry>
        </mxCell>
        <mxCell id="0g2nk41mGP0cA1QGWgye-143" value="" style="endArrow=none;html=1;rounded=0;exitX=1;exitY=0.5;exitDx=0;exitDy=0;entryX=0.25;entryY=0;entryDx=0;entryDy=0;" edge="1" parent="1" source="0g2nk41mGP0cA1QGWgye-77" target="0g2nk41mGP0cA1QGWgye-7">
          <mxGeometry width="50" height="50" relative="1" as="geometry">
            <mxPoint x="30" y="480" as="sourcePoint" />
            <mxPoint x="80" y="430" as="targetPoint" />
          </mxGeometry>
        </mxCell>
        <mxCell id="0g2nk41mGP0cA1QGWgye-144" value="Cinema_id" style="ellipse;whiteSpace=wrap;html=1;fillColor=#cdeb8b;strokeColor=#36393d;" vertex="1" parent="1">
          <mxGeometry x="-290" y="680" width="80" height="40" as="geometry" />
        </mxCell>
        <mxCell id="0g2nk41mGP0cA1QGWgye-145" value="Movie_id" style="ellipse;whiteSpace=wrap;html=1;fillColor=#cdeb8b;strokeColor=#36393d;" vertex="1" parent="1">
          <mxGeometry x="440" y="320" width="80" height="40" as="geometry" />
        </mxCell>
        <mxCell id="0g2nk41mGP0cA1QGWgye-146" value="Movie_id" style="ellipse;whiteSpace=wrap;html=1;fillColor=#cdeb8b;strokeColor=#36393d;" vertex="1" parent="1">
          <mxGeometry x="440" y="595" width="80" height="40" as="geometry" />
        </mxCell>
      </root>
    </mxGraphModel>
  </diagram>
</mxfile>
